<?xml version="1.0" encoding="utf-8"?>
<!-- Generator: Adobe Illustrator 26.5.0, SVG Export Plug-In . SVG Version: 6.00 Build 0)  -->
<svg version="1.1" id="Layer_1" xmlns="http://www.w3.org/2000/svg" xmlns:xlink="http://www.w3.org/1999/xlink" x="0px" y="0px"
	 viewBox="0 0 1028.8 637.2" style="enable-background:new 0 0 1028.8 637.2;" xml:space="preserve">
<style type="text/css">
	.st0{fill:#422626;}
	.st1{fill:#FFFFFF;}
	.st2{fill:#A80050;}
	.st3{fill:none;}
	.st4{fill:none;stroke:#FFFFFF;stroke-width:9;stroke-miterlimit:10;}
	.st5{fill:#AA0554;}
</style>
<path class="st3" d="M743.2,367.4c1.4-1.2,2.1-2.8,2.1-4.6c0-1.9-0.7-3.5-2-4.6c-1.3-1.1-3.2-1.7-5.6-1.7h-3v12.7h3.3
	C740.1,369.2,741.8,368.6,743.2,367.4z"/>
<path class="st3" d="M874.7,215.6l-3.1-7.7l-5.1,12.6c0,0,0,0,0,0C868.4,218.7,871,216.9,874.7,215.6z"/>
<path class="st3" d="M663.5,432.6C663.5,432.5,663.5,432.5,663.5,432.6c2.4-2.3,5.8-4.6,10.3-6.1l-3.9-9.6L663.5,432.6z"/>
<path class="st3" d="M550.2,234.4c2.9,2,6.1,3,9.6,3c3.2,0,6-0.8,8.4-2.4c2.4-1.6,4.3-3.8,5.6-6.7c1.3-2.9,2-6.3,2-10.2
	c0-4.8-0.8-9-2.5-12.6c-1.7-3.6-3.9-6.3-6.8-8.3c-2.8-2-6-3-9.5-3c-3.2,0-6,0.8-8.4,2.3c-2.5,1.6-4.4,3.8-5.7,6.7
	c-1.4,2.9-2.1,6.3-2.1,10.2c0,4.8,0.8,9,2.5,12.6C545.1,229.6,547.3,232.4,550.2,234.4z"/>
<path class="st3" d="M776.4,432.5c2.4-2.3,5.8-4.6,10.3-6.1l-3.9-9.6L776.4,432.5C776.4,432.5,776.4,432.5,776.4,432.5z"/>
<path class="st3" d="M605.3,271.9l-3.9-9.6L595,278c0,0,0,0,0,0C597.4,275.7,600.7,273.4,605.3,271.9z"/>
<path class="st3" d="M153.5,147.1v343.5H497V147.1H153.5z M380.7,481.3c-89.7,30.7-187.3-17.2-218-106.9
	c-30.7-89.7,17.2-187.3,106.9-218c89.7-30.7,187.3,17.2,218,106.9C518.4,353.1,470.5,450.7,380.7,481.3z"/>
<path class="st3" d="M557.1,416.6c-1.5-1.1-3.2-1.6-5-1.6c-1.7,0-3.1,0.4-4.4,1.3c-1.3,0.9-2.3,2.1-3,3.7c-0.7,1.6-1.1,3.5-1.1,5.6
	c0,2.6,0.4,5,1.3,7c0.9,2,2.1,3.5,3.6,4.6c1.5,1.1,3.2,1.6,5.1,1.6c1.7,0,3.1-0.4,4.4-1.3c1.3-0.9,2.2-2.1,2.9-3.7
	c0.7-1.6,1.1-3.5,1.1-5.6c0-2.6-0.4-5-1.3-6.9C559.8,419.2,558.6,417.7,557.1,416.6z"/>
<path class="st3" d="M739.2,228.8c1.9,1.4,4,2,6.3,2c2.1,0,3.9-0.5,5.5-1.6c1.6-1.1,2.8-2.6,3.7-4.6c0.9-2,1.3-4.3,1.3-7
	c0-3.3-0.5-6.2-1.6-8.7c-1.1-2.5-2.6-4.4-4.5-5.8c-1.9-1.4-4-2-6.2-2c-2.1,0-3.9,0.5-5.5,1.6c-1.6,1.1-2.9,2.6-3.8,4.6
	c-0.9,2-1.4,4.3-1.4,7c0,3.3,0.6,6.2,1.7,8.7C735.8,225.6,737.3,227.5,739.2,228.8z"/>
<path class="st3" d="M534.9,317.4h352.8V147.1H497v343.5h390.8V319.8H534.9V317.4z M639.6,256.3l-4.1,2v28l4.1,2v0.8H626v-0.8l4.2-2
	v-28l-4.2-2v-0.8h13.7V256.3z M674.4,289.3h-26.1v-0.8l4.1-2v-28l-4.1-2v-0.8h14.2v0.8l-4.7,2v28.1H670l3.6-8.8h0.8V289.3z
	 M858.2,228.8l2.6-1.3l10.5-25.1h2.2l5.1,12.3c0,0,0,0,0,0c1.2-0.2,2.5-0.4,3.8-0.5l0.8,1.9c-1.4,0.1-2.7,0.2-3.8,0.4c0,0,0,0,0,0
	l4.5,10.9l2.7,1.5v0.7h-10.8v-0.7l3.6-1.4l-4.1-10h0c-8.4,2.8-11.2,8.9-11.7,10.1l3.4,1.4v0.7h-8.8V228.8z M828.6,228.9l3.3-1.6V205
	l-3.3-1.7v-0.7h6.4l15.7,19.3v-17l-4.2-1.6v-0.7h10.4v0.7l-3.3,1.6v25h-1.8l-17.1-20.9v18.5l4.2,1.6v0.7h-10.4V228.9z M825.5,288.4
	l4.1-2v-28l-4.1-2v-0.8h25.7v8.8h-0.8l-3.3-6h-12v12.1h8.5l2.6-4.3h0.8v11.3h-0.8l-2.6-4.2H835v13.2h13.4l3.4-6.8h0.8v9.6h-27.1
	V288.4z M789.2,232.1l4.1-2v-28l-4.1-2v-0.8h14.2v0.8l-4.7,2v28.1h12.1l3.6-8.8h0.8v11.6h-26.1V232.1z M783.9,288.4l4.1-2v-28
	l-4.1-2v-0.8h13.5v0.8l-4,2v22.9c0.9-1.2,2-2.5,3.4-3.9c2.5-2.4,6-4.7,10.6-6.3c0.8-0.3,1.7-0.5,2.5-0.8v-12l-4.1-2v-0.8h13.5v0.8
	l-4.1,2v11c0.7-0.1,1.4-0.1,2.2-0.2l1,2.4c-1.1,0-2.2,0.1-3.2,0.3v14.5l4.1,2v0.8h-13.5v-0.8l4.1-2v-13.5c-0.6,0.1-1.1,0.3-1.6,0.5
	c-10.3,3.4-14.1,10.7-15,12.7v0.4l4,2v0.8h-13.5V288.4z M767.6,232.1l4.2-2v-28l-4.2-2v-0.8h13.7v0.8l-4.1,2v28l4.1,2v0.8h-13.7
	V232.1z M766.6,255.2l9.5,31.3l3.9,1.9v0.8h-13.8v-0.8l4.3-1.9l-6.2-21.6H764l-8.8,24.6H753l-9-24.6h-0.3l-6.2,21.5l4.3,1.9v0.8
	h-11.4v-0.8l3.4-1.8l9.6-31.4h2.1l9.2,24.5h0.4l9.3-24.5H766.6z M728.6,209.1c0.9-2.1,2.1-3.9,3.6-5.5c1.6-1.6,3.4-2.8,5.5-3.6
	c2.1-0.9,4.4-1.3,6.8-1.3c2.5,0,4.7,0.4,6.8,1.3c2.1,0.9,3.9,2.1,5.5,3.6c1.6,1.6,2.8,3.4,3.6,5.5c0.9,2.1,1.3,4.4,1.3,7
	s-0.4,4.8-1.3,7c-0.9,2.1-2.1,3.9-3.6,5.5c-1.6,1.6-3.4,2.8-5.5,3.6c-2.1,0.9-4.4,1.3-6.8,1.3c-2.5,0-4.7-0.4-6.8-1.3
	c-2.1-0.9-3.9-2.1-5.5-3.6c-1.6-1.6-2.8-3.4-3.6-5.5s-1.3-4.4-1.3-7S727.8,211.2,728.6,209.1z M725.8,256.3l-4.1,2v28l4.1,2v0.8
	h-13.7v-0.8l4.2-2v-28l-4.2-2v-0.8h13.7V256.3z M691.4,210c1-2.2,2.3-4.1,3.9-5.8c1.7-1.7,3.6-3,5.7-4s4.4-1.5,6.9-1.5
	c1.7,0,3.2,0.1,4.4,0.3c1.2,0.2,2.3,0.5,3.2,0.9c0.9,0.4,1.9,0.8,2.8,1.3l0.3,9.1h-0.9l-3.5-6.7c-1.2-0.8-2.2-1.4-3.1-1.8
	c-0.9-0.4-2-0.6-3.1-0.6c-2.4,0-4.5,0.6-6.3,1.8s-3.3,2.9-4.4,5.1c-1.1,2.2-1.6,4.7-1.6,7.5c0,3.2,0.5,5.9,1.6,8.2
	c1,2.3,2.4,4,4.2,5.2c1.8,1.2,3.7,1.8,5.9,1.8c1.8,0,3.3-0.2,4.5-0.7c1.2-0.5,2.3-1,3.2-1.7l3.4-5.7h0.9l-0.6,8.2
	c-1.5,0.7-3.1,1.4-4.8,1.8c-1.7,0.5-3.9,0.7-6.6,0.7c-3.5,0-6.5-0.7-9.1-2.1s-4.5-3.4-5.9-5.9c-1.4-2.5-2.1-5.3-2.1-8.5
	C690,214.5,690.4,212.2,691.4,210z M682,288.4l4.1-2v-28l-4.1-2v-0.8h14.2v0.8l-4.7,2v28.1h12.1l3.6-8.8h0.8v11.6H682V288.4z
	 M660.5,222.6l2.7,5.6c1.2,1,2.4,1.7,3.5,2.1s2.3,0.7,3.5,0.7c2,0,3.5-0.5,4.7-1.5c1.1-1,1.7-2.4,1.7-4.2c0-1.4-0.3-2.5-0.9-3.4
	c-0.6-0.8-1.6-1.6-2.8-2.3c-1.2-0.7-2.8-1.4-4.6-2.3c-2.4-1.2-4.3-2.4-5.6-3.7c-1.3-1.3-1.9-3.1-1.9-5.4c0-1.2,0.3-2.4,0.9-3.6
	c0.6-1.1,1.4-2.2,2.4-3.1c1-0.9,2.2-1.6,3.4-2.2c1.3-0.5,2.6-0.8,3.9-0.8c1.6,0,3.1,0.2,4.5,0.6c1.4,0.4,2.8,0.9,4.1,1.6l0.5,8.2
	h-0.8l-2.7-5.5c-1.1-0.9-2.1-1.5-3-1.8c-0.9-0.4-1.9-0.6-3-0.6c-1.5,0-2.7,0.5-3.7,1.5c-1,1-1.5,2.2-1.5,3.7c0,1.7,0.5,3,1.6,3.9
	c1,1,2.7,2,5,3.1c2,1,3.7,1.9,5.1,2.8c1.3,0.9,2.3,1.9,3,3c0.6,1.1,1,2.6,1,4.3c0,1.6-0.3,3-1,4.2c-0.7,1.2-1.6,2.3-2.7,3.1
	c-1.1,0.8-2.3,1.5-3.7,1.9c-1.3,0.4-2.6,0.6-3.9,0.6c-2.1,0-4-0.2-5.5-0.6c-1.5-0.4-3.1-1-4.7-1.8l-0.5-8.4H660.5z M625,232.1l4.1-2
	v-28l-4.1-2v-0.8h14.2v0.8l-4.7,2v28.1h12.1l3.6-8.8h0.8v11.6H625V232.1z M591.3,232.1l4.1-2v-28l-4.1-2v-0.8h14.2v0.8l-4.7,2v28.1
	h12.1l3.6-8.8h0.8v11.6h-26.1V232.1z M584.7,288.4l3.2-1.7l13.1-31.4h2.8l6.4,15.4c0,0,0,0,0,0c1.5-0.3,3.1-0.5,4.8-0.6l1,2.3
	c-1.7,0.1-3.3,0.2-4.8,0.5c0,0,0,0,0,0l5.7,13.7l3.4,1.8v0.8h-13.5v-0.8l4.5-1.8l-5.1-12.5c-10.5,3.5-14,11.1-14.6,12.6l4.2,1.7v0.8
	h-11V288.4z M536.6,206c1.2-3,2.8-5.6,4.9-7.8c2.1-2.2,4.6-3.9,7.4-5.1c2.9-1.2,6-1.8,9.3-1.8c3.4,0,6.5,0.6,9.3,1.8
	c2.9,1.2,5.4,2.9,7.5,5.1c2.1,2.2,3.8,4.8,4.9,7.8c1.2,3,1.8,6.3,1.8,9.8c0,3.6-0.6,6.8-1.8,9.8c-1.2,3-2.8,5.6-4.9,7.8
	c-2.1,2.2-4.6,3.9-7.5,5.1c-2.9,1.2-6,1.8-9.3,1.8c-3.4,0-6.5-0.6-9.3-1.8c-2.9-1.2-5.3-2.9-7.4-5.1c-2.1-2.2-3.7-4.8-4.9-7.8
	c-1.2-3-1.8-6.3-1.8-9.8C534.9,212.3,535.5,209,536.6,206z M536.9,263.6c1.3-3.1,3.1-5.9,5.4-8.2c2.3-2.3,5-4.1,8.1-5.4
	c3.1-1.3,6.4-1.9,9.8-1.9c2.5,0,4.7,0.1,6.5,0.4c1.8,0.3,3.3,0.7,4.8,1.2c1.4,0.5,2.8,1.1,4.2,1.8l0.4,11.6h-1.3l-3.9-8.1
	c-2-1.4-3.8-2.5-5.4-3.1c-1.6-0.6-3.4-0.9-5.4-0.9c-3.9,0-7.3,0.9-10.2,2.6c-2.9,1.7-5.2,4.1-6.9,7c-1.7,3-2.5,6.2-2.5,9.9
	c0,4.8,0.9,8.9,2.7,12.3c1.8,3.4,4.3,6,7.3,7.9c3.1,1.8,6.4,2.7,10.1,2.7c1.7,0,3.3-0.1,4.9-0.3c1.6-0.2,3.2-0.7,4.9-1.3v-12.6
	l-6.4-2.3v-1.4H581v1.4l-5.2,2.3v12.1c-2.1,1.8-4.7,3.2-7.8,4.2c-3.1,1-6.2,1.6-9.1,1.6c-4.6,0-8.7-1-12.4-3c-3.6-2-6.5-4.8-8.6-8.3
	c-2.1-3.5-3.1-7.5-3.1-11.9C534.9,270.2,535.5,266.7,536.9,263.6z M565.5,432.4c-0.7,1.7-1.7,3.2-2.9,4.4c-1.2,1.2-2.7,2.2-4.4,2.9
	c-1.7,0.7-3.5,1-5.5,1s-3.8-0.3-5.5-1s-3.1-1.7-4.4-2.9c-1.2-1.2-2.2-2.7-2.9-4.4c-0.7-1.7-1-3.5-1-5.6c0-2,0.3-3.9,1-5.6
	c0.7-1.7,1.6-3.2,2.9-4.4c1.2-1.2,2.7-2.2,4.4-2.9c1.7-0.7,3.5-1,5.5-1s3.8,0.3,5.5,1c1.7,0.7,3.1,1.7,4.4,2.9
	c1.2,1.2,2.2,2.7,2.9,4.4s1,3.5,1,5.6C566.5,428.9,566.2,430.8,565.5,432.4z M591.8,420.4h-0.7l-2.6-4.8h-9.3v9.7h6.4l2.1-3.4h0.7v9
	h-0.7l-2.1-3.4h-6.4v10.6l3.8,1.6v0.7h-11.4v-0.7l3.3-1.6v-22.4l-3.3-1.6v-0.7h20.1V420.4z M848.5,353.7h13.2v0.8l-3.7,1.8v0.2
	l9.1,12.3l8.2-12.3v-0.2l-3.8-1.9v-0.8h11v0.8l-3.3,1.7l-10.8,15.4v12.9l4.6,2v0.8h-14.5v-0.8l4.6-2v-12.9l-11.3-15.4l-3.2-1.8
	V353.7z M813.3,353.7h30.4v10.5h-0.8l-3.6-7.7h-8.1v28.1l5.2,2v0.8h-15.7v-0.8l5.2-2v-28.1h-8.1l-3.6,7.7h-0.8V353.7z M818.2,425.2
	l8.2-12.3v-0.2l-3.8-1.9V410h11v0.8l-3.3,1.7L819.5,428v12.9l4.6,2v0.8h-14.5v-0.8l4.6-2V428l-11.3-15.4l-3.2-1.8V410h13.2v0.8
	l-3.7,1.8v0.2L818.2,425.2z M792.1,386.6l4.2-2v-28l-4.2-2v-0.8h13.7v0.8l-4.1,2v28l4.1,2v0.8h-13.7V386.6z M791.7,425.1
	C791.7,425.1,791.7,425.1,791.7,425.1c1.5-0.3,3.1-0.5,4.8-0.6l1,2.3c-1.7,0.1-3.3,0.2-4.8,0.5c0,0,0,0,0,0l5.7,13.7l3.4,1.8v0.8
	h-13.5v-0.8l4.5-1.8l-5.1-12.5c-10.5,3.5-14,11.1-14.6,12.6l4.2,1.7v0.8h-11v-0.8l3.2-1.7l13.1-31.4h2.8L791.7,425.1z M761.7,377.1
	l2.7,5.6c1.2,1,2.4,1.7,3.5,2.1c1.2,0.4,2.3,0.7,3.5,0.7c2,0,3.5-0.5,4.7-1.5c1.1-1,1.7-2.4,1.7-4.2c0-1.4-0.3-2.5-0.9-3.4
	c-0.6-0.8-1.6-1.6-2.8-2.3c-1.2-0.7-2.8-1.4-4.6-2.3c-2.4-1.2-4.3-2.4-5.6-3.7c-1.3-1.3-1.9-3.1-1.9-5.4c0-1.2,0.3-2.4,0.9-3.6
	c0.6-1.1,1.4-2.2,2.4-3.1c1-0.9,2.2-1.6,3.4-2.2c1.3-0.5,2.6-0.8,3.9-0.8c1.6,0,3.1,0.2,4.5,0.6c1.4,0.4,2.8,0.9,4.1,1.6l0.5,8.2
	H781l-2.7-5.5c-1.1-0.9-2.1-1.5-3-1.8c-0.9-0.4-1.9-0.6-3-0.6c-1.5,0-2.7,0.5-3.7,1.5c-1,1-1.5,2.2-1.5,3.7c0,1.7,0.5,3,1.6,3.9
	c1,1,2.7,2,5,3.1c2,1,3.7,1.9,5.1,2.8c1.3,0.9,2.3,1.9,3,3c0.6,1.1,1,2.6,1,4.3c0,1.6-0.3,3-1,4.2c-0.7,1.2-1.6,2.3-2.7,3.1
	c-1.1,0.8-2.3,1.5-3.7,1.9c-1.3,0.4-2.6,0.6-3.9,0.6c-2.1,0-4-0.2-5.5-0.6c-1.5-0.4-3.1-1-4.7-1.8l-0.5-8.4H761.7z M725.1,386.6
	l4.1-2v-28l-4.1-2v-0.8h14.2c3.6,0,6.4,0.7,8.5,2.2c2.1,1.5,3.1,3.5,3.1,6.1c0,1.9-0.6,3.6-1.9,5.1c-1.3,1.5-3,2.6-5.1,3.4l9.7,14.3
	l3.4,1.9v0.8h-8.2l-9.8-15.5h-4.2v12.6l3.8,2.1v0.8h-13.3V386.6z M719.9,410h13.8v0.8l-4.3,1.9l6.2,21.6h0.3l8.8-24.6h2.1l9,24.6
	h0.3l6.2-21.5l-4.3-1.9V410h11.4v0.8l-3.4,1.8l-9.6,31.4h-2.1l-9.2-24.5h-0.4l-9.3,24.5h-2l-9.5-31.3l-3.9-1.9V410z M720.4,432.2
	v11.6h-26.1v-0.8l4.1-2v-28l-4.1-2V410h14.2v0.8l-4.7,2v28.1H716l3.6-8.8H720.4z M690,386.6l4.1-2v-28l-4.1-2v-0.8h25.7v8.8h-0.8
	l-3.3-6h-12v12.9h8.5l2.6-4.3h0.8v11.3h-0.8l-2.6-4.2h-8.5v12.4h13.4l3.4-6.8h0.8v9.6H690V386.6z M688.7,442.9v0.8h-13.5v-0.8
	l4.5-1.8l-5.1-12.5c-10.5,3.5-14,11.1-14.6,12.6l4.2,1.7v0.8h-11v-0.8l3.2-1.7l13.1-31.4h2.8l6.4,15.4c0,0,0,0,0,0
	c1.5-0.3,3.1-0.5,4.8-0.6l1,2.3c-1.7,0.1-3.3,0.2-4.8,0.5c0,0,0,0,0,0l5.7,13.7L688.7,442.9z M649.9,353.7h13.6v0.8l-4.5,1.9l9.6,23
	h0.3l9.5-23.2l-4.2-1.8v-0.8h10.8v0.8l-2.9,1.6l-13.3,31.6h-2l-13.1-31.4l-3.5-1.8V353.7z M630,386.6l4.2-2v-28l-4.2-2v-0.8h13.7
	v0.8l-4.1,2v28l4.1,2v0.8H630V386.6z M635.9,403c1.8,0.3,3.3,0.7,4.8,1.2c1.4,0.5,2.8,1.1,4.2,1.8l0.4,11.6h-1.3l-3.9-8.1
	c-2-1.4-3.8-2.5-5.4-3.1c-1.6-0.6-3.4-0.9-5.4-0.9c-3.9,0-7.3,0.9-10.2,2.6c-2.9,1.7-5.2,4.1-6.9,7c-1.7,3-2.5,6.2-2.5,9.9
	c0,4.8,0.9,8.9,2.7,12.3c1.8,3.4,4.3,6,7.3,7.9c3.1,1.8,6.4,2.7,10.1,2.7c1.7,0,3.3-0.1,4.9-0.3c1.6-0.2,3.2-0.7,4.9-1.3v-12.6
	l-6.3-2.3V430h17.2v1.4l-5.2,2.3v12.1c-2.1,1.8-4.7,3.2-7.8,4.2c-3.1,1-6.2,1.6-9.1,1.6c-4.6,0-8.7-1-12.4-3c-3.6-2-6.5-4.8-8.6-8.3
	c-2.1-3.5-3.1-7.5-3.1-11.9c0-3.7,0.7-7.1,2-10.2c1.3-3.1,3.1-5.9,5.4-8.2c2.3-2.3,5-4.1,8.1-5.4c3.1-1.3,6.4-1.9,9.8-1.9
	C632,402.5,634.1,402.7,635.9,403z M587.8,386.6l4.1-2v-27.9l-4.1-2.1v-0.8h8l19.6,24.1v-21.3l-5.3-2v-0.8h12.9v0.8l-4.1,2v31.2
	h-2.2l-21.3-26.2v23.1l5.3,2v0.8h-13V386.6z M552,345.4v1.4l-5.8,2.2v25c0,4,0.6,7.2,1.8,9.5c1.2,2.3,2.9,4,5.1,5
	c2.2,1,4.6,1.5,7.4,1.5c2.3,0,4.4-0.5,6.3-1.4c1.9-0.9,3.4-2.4,4.5-4.4c1.1-2,1.7-4.7,1.7-7.9v-27.4l-7.2-2v-1.4H583v1.4l-5.7,2.1
	v26.1c0,4.4-0.8,7.9-2.4,10.7c-1.6,2.7-3.8,4.8-6.5,6.1c-2.8,1.3-5.9,1.9-9.4,1.9s-6.7-0.6-9.4-1.9c-2.8-1.3-4.9-3.3-6.5-6.1
	c-1.6-2.7-2.4-6.3-2.4-10.7V349l-5.8-2.2v-1.4H552z"/>
<polygon points="617.4,221.3 616.6,221.3 612.9,230.1 600.8,230.1 600.8,202 605.5,200 605.5,199.2 591.3,199.2 591.3,200 
	595.4,202 595.4,230.1 591.3,232.1 591.3,232.9 617.4,232.9 "/>
<polygon points="651,221.3 650.2,221.3 646.6,230.1 634.5,230.1 634.5,202 639.1,200 639.1,199.2 625,199.2 625,200 629.1,202 
	629.1,230.1 625,232.1 625,232.9 651,232.9 "/>
<path d="M664.9,232.8c1.5,0.4,3.4,0.6,5.5,0.6c1.3,0,2.6-0.2,3.9-0.6c1.3-0.4,2.5-1.1,3.7-1.9c1.1-0.8,2-1.9,2.7-3.1
	c0.7-1.2,1-2.6,1-4.2c0-1.7-0.3-3.2-1-4.3c-0.6-1.1-1.6-2.1-3-3c-1.3-0.9-3-1.8-5.1-2.8c-2.3-1.1-4-2.1-5-3.1c-1-1-1.6-2.3-1.6-3.9
	c0-1.5,0.5-2.7,1.5-3.7c1-1,2.2-1.5,3.7-1.5c1.1,0,2.1,0.2,3,0.6c0.9,0.4,1.9,1,3,1.8l2.7,5.5h0.8l-0.5-8.2
	c-1.4-0.7-2.7-1.3-4.1-1.6c-1.4-0.4-2.9-0.6-4.5-0.6c-1.4,0-2.7,0.3-3.9,0.8c-1.3,0.5-2.4,1.3-3.4,2.2c-1,0.9-1.8,1.9-2.4,3.1
	c-0.6,1.1-0.9,2.3-0.9,3.6c0,2.3,0.6,4.1,1.9,5.4c1.3,1.3,3.2,2.5,5.6,3.7c1.8,0.9,3.3,1.7,4.6,2.3c1.2,0.7,2.2,1.4,2.8,2.3
	c0.6,0.8,0.9,2,0.9,3.4c0,1.8-0.6,3.2-1.7,4.2c-1.1,1-2.7,1.5-4.7,1.5c-1.2,0-2.3-0.2-3.5-0.7s-2.3-1.2-3.5-2.1l-2.7-5.6h-0.8
	l0.5,8.4C661.8,231.8,663.4,232.4,664.9,232.8z"/>
<path d="M698,231.3c2.6,1.4,5.6,2.1,9.1,2.1c2.7,0,4.9-0.2,6.6-0.7c1.7-0.5,3.3-1.1,4.8-1.8l0.6-8.2h-0.9l-3.4,5.7
	c-1,0.6-2,1.2-3.2,1.7c-1.2,0.5-2.7,0.7-4.5,0.7c-2.1,0-4.1-0.6-5.9-1.8c-1.8-1.2-3.2-2.9-4.2-5.2c-1-2.3-1.6-5-1.6-8.2
	c0-2.8,0.5-5.3,1.6-7.5c1.1-2.2,2.6-3.9,4.4-5.1s4-1.8,6.3-1.8c1.2,0,2.2,0.2,3.1,0.6c0.9,0.4,2,1,3.1,1.8l3.5,6.7h0.9l-0.3-9.1
	c-1-0.5-1.9-0.9-2.8-1.3c-0.9-0.4-2-0.6-3.2-0.9c-1.2-0.2-2.7-0.3-4.4-0.3c-2.4,0-4.7,0.5-6.9,1.5s-4,2.3-5.7,4
	c-1.7,1.7-3,3.6-3.9,5.8c-1,2.2-1.4,4.5-1.4,7c0,3.2,0.7,6,2.1,8.5C693.5,227.9,695.4,229.9,698,231.3z"/>
<path d="M732.2,228.5c1.6,1.6,3.4,2.8,5.5,3.6c2.1,0.9,4.4,1.3,6.8,1.3c2.5,0,4.7-0.4,6.8-1.3c2.1-0.9,3.9-2.1,5.5-3.6
	c1.6-1.6,2.8-3.4,3.6-5.5c0.9-2.1,1.3-4.4,1.3-7s-0.4-4.8-1.3-7c-0.9-2.1-2.1-3.9-3.6-5.5c-1.6-1.6-3.4-2.8-5.5-3.6
	c-2.1-0.9-4.4-1.3-6.8-1.3c-2.5,0-4.7,0.4-6.8,1.3c-2.1,0.9-3.9,2.1-5.5,3.6c-1.6,1.6-2.8,3.4-3.6,5.5c-0.9,2.1-1.3,4.4-1.3,7
	s0.4,4.8,1.3,7S730.7,227,732.2,228.5z M734.4,207.4c0.9-2,2.2-3.5,3.8-4.6c1.6-1.1,3.4-1.6,5.5-1.6c2.3,0,4.4,0.7,6.2,2
	c1.9,1.4,3.4,3.3,4.5,5.8c1.1,2.5,1.6,5.4,1.6,8.7c0,2.7-0.4,5-1.3,7c-0.9,2-2.1,3.5-3.7,4.6c-1.6,1.1-3.4,1.6-5.5,1.6
	c-2.3,0-4.4-0.7-6.3-2c-1.9-1.4-3.4-3.3-4.5-5.8c-1.1-2.5-1.7-5.4-1.7-8.7C733.1,211.7,733.5,209.3,734.4,207.4z"/>
<polygon points="781.2,232.1 777.1,230.1 777.1,202 781.2,200 781.2,199.2 767.6,199.2 767.6,200 771.8,202 771.8,230.1 
	767.6,232.1 767.6,232.9 781.2,232.9 "/>
<polygon points="815.3,221.3 814.4,221.3 810.8,230.1 798.7,230.1 798.7,202 803.3,200 803.3,199.2 789.2,199.2 789.2,200 
	793.3,202 793.3,230.1 789.2,232.1 789.2,232.9 815.3,232.9 "/>
<polygon points="839,228.9 834.8,227.3 834.8,208.8 851.8,229.8 853.6,229.8 853.6,204.8 856.9,203.2 856.9,202.6 846.5,202.6 
	846.5,203.2 850.7,204.8 850.7,221.9 835.1,202.6 828.6,202.6 828.6,203.2 831.9,205 831.9,227.3 828.6,228.9 828.6,229.6 
	839,229.6 "/>
<path d="M867,228.8l-3.4-1.4c0.5-1.2,3.3-7.3,11.7-10.1h0l4.1,10l-3.6,1.4v0.7h10.8v-0.7l-2.7-1.5l-4.5-10.9c0,0,0,0,0,0
	c1.2-0.2,2.5-0.3,3.8-0.4l-0.8-1.9c-1.4,0.1-2.6,0.2-3.8,0.5c0,0,0,0,0,0l-5.1-12.3h-2.2l-10.5,25.1l-2.6,1.3v0.7h8.8V228.8z
	 M871.5,207.9l3.1,7.7c-3.6,1.2-6.3,3.1-8.2,4.9c0,0,0,0,0,0L871.5,207.9z"/>
<path d="M541.6,233.4c2.1,2.2,4.6,3.9,7.4,5.1c2.9,1.2,6,1.8,9.3,1.8c3.4,0,6.5-0.6,9.3-1.8c2.9-1.2,5.4-2.9,7.5-5.1
	c2.1-2.2,3.8-4.8,4.9-7.8c1.2-3,1.8-6.3,1.8-9.8c0-3.6-0.6-6.8-1.8-9.8c-1.2-3-2.8-5.6-4.9-7.8c-2.1-2.2-4.6-3.9-7.5-5.1
	c-2.9-1.2-6-1.8-9.3-1.8c-3.4,0-6.5,0.6-9.3,1.8c-2.9,1.2-5.3,2.9-7.4,5.1c-2.1,2.2-3.7,4.8-4.9,7.8c-1.2,3-1.8,6.3-1.8,9.8
	c0,3.6,0.6,6.8,1.8,9.8C537.8,228.6,539.5,231.2,541.6,233.4z M542.9,203.3c1.4-2.9,3.3-5.1,5.7-6.7c2.5-1.6,5.3-2.3,8.4-2.3
	c3.5,0,6.6,1,9.5,3c2.8,2,5.1,4.7,6.8,8.3c1.7,3.6,2.5,7.7,2.5,12.6c0,3.9-0.7,7.3-2,10.2c-1.3,2.9-3.2,5.1-5.6,6.7
	c-2.4,1.6-5.2,2.4-8.4,2.4c-3.6,0-6.8-1-9.6-3s-5.1-4.8-6.8-8.3c-1.7-3.6-2.5-7.8-2.5-12.6C540.9,209.6,541.6,206.2,542.9,203.3z"/>
<path d="M797.5,288.4l-4-2V286c0.9-2,4.6-9.3,15-12.7c0.5-0.2,1.1-0.3,1.6-0.5v13.5l-4.1,2v0.8h13.5v-0.8l-4.1-2v-14.5
	c1-0.1,2.1-0.2,3.2-0.3l-1-2.4c-0.8,0-1.5,0.1-2.2,0.2v-11l4.1-2v-0.8h-13.5v0.8l4.1,2v12c-0.9,0.2-1.7,0.5-2.5,0.8
	c-4.7,1.6-8.1,3.9-10.6,6.3c-1.4,1.3-2.6,2.7-3.4,3.9v-22.9l4-2v-0.8h-13.5v0.8l4.1,2v28l-4.1,2v0.8h13.5V288.4z"/>
<polygon points="626,256.3 630.2,258.4 630.2,286.4 626,288.4 626,289.3 639.6,289.3 639.6,288.4 635.5,286.4 635.5,258.4 
	639.6,256.3 639.6,255.5 626,255.5 "/>
<polygon points="712.1,256.3 716.3,258.4 716.3,286.4 712.1,288.4 712.1,289.3 725.8,289.3 725.8,288.4 721.6,286.4 721.6,258.4 
	725.8,256.3 725.8,255.5 712.1,255.5 "/>
<polygon points="670,286.4 657.9,286.4 657.9,258.4 662.5,256.3 662.5,255.5 648.3,255.5 648.3,256.3 652.5,258.4 652.5,286.4 
	648.3,288.4 648.3,289.3 674.4,289.3 674.4,277.6 673.6,277.6 "/>
<polygon points="708.1,277.6 707.3,277.6 703.6,286.4 691.5,286.4 691.5,258.4 696.2,256.3 696.2,255.5 682,255.5 682,256.3 
	686.1,258.4 686.1,286.4 682,288.4 682,289.3 708.1,289.3 "/>
<polygon points="852.6,279.7 851.8,279.7 848.4,286.4 835,286.4 835,273.2 843.5,273.2 846.1,277.4 846.9,277.4 846.9,266.1 
	846.1,266.1 843.5,270.4 835,270.4 835,258.3 847,258.3 850.3,264.3 851.2,264.3 851.2,255.5 825.5,255.5 825.5,256.3 829.6,258.4 
	829.6,286.4 825.5,288.4 825.5,289.3 852.6,289.3 "/>
<polygon points="754.8,279.7 745.6,255.2 743.5,255.2 733.9,286.6 730.5,288.4 730.5,289.3 741.9,289.3 741.9,288.4 737.5,286.5 
	743.7,265 744,265 753,289.5 755.1,289.5 764,265 764.3,265 770.5,286.5 766.2,288.4 766.2,289.3 780,289.3 780,288.4 776.1,286.5 
	766.6,255.2 764.5,255.2 755.2,279.7 "/>
<path d="M595.7,288.4l-4.2-1.7c0.6-1.5,4.1-9.1,14.6-12.6l5.1,12.5l-4.5,1.8v0.8h13.5v-0.8l-3.4-1.8l-5.7-13.7c0,0,0,0,0,0
	c1.5-0.2,3.1-0.4,4.8-0.5l-1-2.3c-1.7,0.1-3.3,0.3-4.8,0.6c0,0,0,0,0,0l-6.4-15.4h-2.8l-13.1,31.4l-3.2,1.7v0.8h11V288.4z
	 M601.4,262.3l3.9,9.6c-4.5,1.5-7.9,3.8-10.3,6.1c0,0,0,0,0,0L601.4,262.3z"/>
<path d="M546.5,294.1c3.6,2,7.8,3,12.4,3c2.9,0,6-0.5,9.1-1.6c3.1-1,5.7-2.4,7.8-4.2v-12.1l5.2-2.3v-1.4h-17.2v1.4l6.4,2.3v12.6
	c-1.7,0.7-3.3,1.1-4.9,1.3c-1.6,0.2-3.2,0.3-4.9,0.3c-3.7,0-7-0.9-10.1-2.7c-3.1-1.8-5.5-4.4-7.3-7.9c-1.8-3.4-2.7-7.5-2.7-12.3
	c0-3.6,0.8-6.9,2.5-9.9c1.7-3,4-5.3,6.9-7c2.9-1.7,6.4-2.6,10.2-2.6c2,0,3.8,0.3,5.4,0.9c1.6,0.6,3.4,1.6,5.4,3.1l3.9,8.1h1.3
	l-0.4-11.6c-1.3-0.7-2.7-1.3-4.2-1.8c-1.4-0.5-3-0.9-4.8-1.2c-1.8-0.3-3.9-0.4-6.5-0.4c-3.5,0-6.7,0.6-9.8,1.9
	c-3.1,1.3-5.8,3.1-8.1,5.4c-2.3,2.3-4.1,5.1-5.4,8.2c-1.3,3.1-2,6.5-2,10.2c0,4.5,1,8.5,3.1,11.9C540,289.3,542.9,292,546.5,294.1z"
	/>
<rect x="534.9" y="317.4" width="352.8" height="2.3"/>
<path d="M562.6,416.9c-1.2-1.2-2.7-2.2-4.4-2.9c-1.7-0.7-3.5-1-5.5-1s-3.8,0.3-5.5,1c-1.7,0.7-3.1,1.7-4.4,2.9
	c-1.2,1.2-2.2,2.7-2.9,4.4c-0.7,1.7-1,3.5-1,5.6c0,2,0.3,3.9,1,5.6c0.7,1.7,1.6,3.2,2.9,4.4c1.2,1.2,2.7,2.2,4.4,2.9s3.5,1,5.5,1
	s3.8-0.3,5.5-1c1.7-0.7,3.1-1.7,4.4-2.9c1.2-1.2,2.2-2.7,2.9-4.4c0.7-1.7,1-3.5,1-5.6c0-2-0.3-3.9-1-5.6S563.8,418.2,562.6,416.9z
	 M560.9,433.8c-0.7,1.6-1.7,2.8-2.9,3.7c-1.3,0.9-2.7,1.3-4.4,1.3c-1.9,0-3.5-0.5-5.1-1.6c-1.5-1.1-2.7-2.6-3.6-4.6
	c-0.9-2-1.3-4.3-1.3-7c0-2.2,0.4-4,1.1-5.6c0.7-1.6,1.7-2.8,3-3.7c1.3-0.9,2.8-1.3,4.4-1.3c1.8,0,3.5,0.5,5,1.6
	c1.5,1.1,2.7,2.6,3.6,4.6c0.9,2,1.3,4.3,1.3,6.9C562,430.3,561.6,432.2,560.9,433.8z"/>
<polygon points="571.7,414 575,415.7 575,438.1 571.7,439.7 571.7,440.4 583.1,440.4 583.1,439.7 579.3,438.1 579.3,427.5 
	585.7,427.5 587.8,430.9 588.5,430.9 588.5,421.9 587.8,421.9 585.7,425.4 579.3,425.4 579.3,415.6 588.6,415.6 591.2,420.4 
	591.8,420.4 591.8,413.4 571.7,413.4 "/>
<polygon points="703.8,440.9 703.8,412.9 708.5,410.8 708.5,410 694.3,410 694.3,410.8 698.5,412.9 698.5,440.9 694.3,442.9 
	694.3,443.8 720.4,443.8 720.4,432.2 719.6,432.2 716,440.9 "/>
<polygon points="733.3,444 735.3,444 744.7,419.5 745,419.5 754.2,444 756.3,444 765.9,412.7 769.4,410.8 769.4,410 758,410 
	758,410.8 762.3,412.8 756.2,434.3 755.9,434.3 746.9,409.7 744.7,409.7 735.9,434.3 735.5,434.3 729.3,412.7 733.7,410.8 
	733.7,410 719.9,410 719.9,410.8 723.8,412.7 "/>
<polygon points="812.8,410.8 812.8,410 799.6,410 799.6,410.8 802.9,412.6 814.2,428 814.2,440.9 809.6,442.9 809.6,443.8 
	824.1,443.8 824.1,442.9 819.5,440.9 819.5,428 830.3,412.5 833.6,410.8 833.6,410 822.6,410 822.6,410.8 826.3,412.7 826.3,412.9 
	818.2,425.2 809.1,412.9 809.1,412.7 "/>
<path d="M679.7,427.4c1.5-0.2,3.1-0.4,4.8-0.5l-1-2.3c-1.7,0.1-3.3,0.3-4.8,0.6c0,0,0,0,0,0l-6.4-15.4h-2.8l-13.1,31.4l-3.2,1.7v0.8
	h11v-0.8l-4.2-1.7c0.6-1.5,4.1-9.1,14.6-12.6l5.1,12.5l-4.5,1.8v0.8h13.5v-0.8l-3.4-1.8L679.7,427.4
	C679.7,427.4,679.7,427.4,679.7,427.4z M663.5,432.5C663.5,432.5,663.5,432.5,663.5,432.5l6.4-15.7l3.9,9.6
	C669.3,428,665.9,430.2,663.5,432.5z"/>
<path d="M769.4,441.2l-3.2,1.7v0.8h11v-0.8l-4.2-1.7c0.6-1.5,4.1-9.1,14.6-12.6l5.1,12.5l-4.5,1.8v0.8h13.5v-0.8l-3.4-1.8l-5.7-13.7
	c0,0,0,0,0,0c1.5-0.2,3.1-0.4,4.8-0.5l-1-2.3c-1.7,0.1-3.3,0.3-4.8,0.6c0,0,0,0,0,0l-6.4-15.4h-2.8L769.4,441.2z M786.7,426.4
	c-4.5,1.5-7.9,3.8-10.3,6.1c0,0,0,0,0,0l6.4-15.7L786.7,426.4z"/>
<path d="M611.5,409.9c-2.3,2.3-4.1,5.1-5.4,8.2c-1.3,3.1-2,6.5-2,10.2c0,4.5,1,8.5,3.1,11.9c2.1,3.5,4.9,6.2,8.6,8.3
	c3.6,2,7.8,3,12.4,3c2.9,0,6-0.5,9.1-1.6c3.1-1,5.7-2.4,7.8-4.2v-12.1l5.2-2.3V430H633v1.4l6.3,2.3v12.6c-1.7,0.7-3.3,1.1-4.9,1.3
	c-1.6,0.2-3.2,0.3-4.9,0.3c-3.7,0-7-0.9-10.1-2.7c-3.1-1.8-5.5-4.4-7.3-7.9c-1.8-3.4-2.7-7.5-2.7-12.3c0-3.6,0.8-6.9,2.5-9.9
	c1.7-3,4-5.3,6.9-7c2.9-1.7,6.4-2.6,10.2-2.6c2,0,3.8,0.3,5.4,0.9c1.6,0.6,3.4,1.6,5.4,3.1l3.9,8.1h1.3l-0.4-11.6
	c-1.3-0.7-2.7-1.3-4.2-1.8c-1.4-0.5-3-0.9-4.8-1.2c-1.8-0.3-3.9-0.4-6.5-0.4c-3.5,0-6.7,0.6-9.8,1.9
	C616.5,405.8,613.8,407.6,611.5,409.9z"/>
<polygon points="600.8,386.6 595.5,384.6 595.5,361.5 616.8,387.7 619,387.7 619,356.5 623.1,354.5 623.1,353.7 610.2,353.7 
	610.2,354.5 615.4,356.5 615.4,377.8 595.8,353.7 587.8,353.7 587.8,354.5 591.9,356.7 591.9,384.6 587.8,386.6 587.8,387.4 
	600.8,387.4 "/>
<polygon points="643.6,386.6 639.5,384.6 639.5,356.6 643.6,354.5 643.6,353.7 630,353.7 630,354.5 634.1,356.6 634.1,384.6 
	630,386.6 630,387.4 643.6,387.4 "/>
<polygon points="666.5,387.7 668.6,387.7 681.9,356.1 684.8,354.5 684.8,353.7 674.1,353.7 674.1,354.5 678.3,356.3 668.8,379.5 
	668.6,379.5 659,356.5 663.5,354.5 663.5,353.7 649.9,353.7 649.9,354.5 653.4,356.3 "/>
<polygon points="717.1,377.9 716.3,377.9 712.9,384.6 699.5,384.6 699.5,372.2 708,372.2 710.6,376.4 711.5,376.4 711.5,365.1 
	710.6,365.1 708,369.4 699.5,369.4 699.5,356.5 711.6,356.5 714.9,362.5 715.7,362.5 715.7,353.7 690,353.7 690,354.5 694.2,356.6 
	694.2,384.6 690,386.6 690,387.4 717.1,387.4 "/>
<path d="M738.5,386.6l-3.8-2.1v-12.6h4.2l9.8,15.5h8.2v-0.8l-3.4-1.9l-9.7-14.3c2.1-0.8,3.8-1.9,5.1-3.4c1.3-1.5,1.9-3.2,1.9-5.1
	c0-2.6-1-4.6-3.1-6.1c-2.1-1.5-4.9-2.2-8.5-2.2h-14.2v0.8l4.1,2v28l-4.1,2v0.8h13.3V386.6z M734.6,356.5h3c2.4,0,4.3,0.6,5.6,1.7
	c1.3,1.1,2,2.6,2,4.6c0,1.9-0.7,3.4-2.1,4.6c-1.4,1.2-3.1,1.8-5.2,1.8h-3.3V356.5z"/>
<path d="M766,387.3c1.5,0.4,3.4,0.6,5.5,0.6c1.3,0,2.6-0.2,3.9-0.6c1.3-0.4,2.5-1.1,3.7-1.9c1.1-0.8,2-1.9,2.7-3.1
	c0.7-1.2,1-2.6,1-4.2c0-1.7-0.3-3.2-1-4.3c-0.6-1.1-1.6-2.1-3-3c-1.3-0.9-3-1.8-5.1-2.8c-2.3-1.1-4-2.1-5-3.1c-1-1-1.6-2.3-1.6-3.9
	c0-1.5,0.5-2.7,1.5-3.7c1-1,2.2-1.5,3.7-1.5c1.1,0,2.1,0.2,3,0.6c0.9,0.4,1.9,1,3,1.8l2.7,5.5h0.8l-0.5-8.2
	c-1.4-0.7-2.7-1.3-4.1-1.6c-1.4-0.4-2.9-0.6-4.5-0.6c-1.4,0-2.7,0.3-3.9,0.8c-1.3,0.5-2.4,1.3-3.4,2.2c-1,0.9-1.8,1.9-2.4,3.1
	c-0.6,1.1-0.9,2.3-0.9,3.6c0,2.3,0.6,4.1,1.9,5.4c1.3,1.3,3.2,2.5,5.6,3.7c1.8,0.9,3.3,1.7,4.6,2.3c1.2,0.7,2.2,1.4,2.8,2.3
	c0.6,0.8,0.9,2,0.9,3.4c0,1.8-0.6,3.2-1.7,4.2c-1.1,1-2.7,1.5-4.7,1.5c-1.2,0-2.3-0.2-3.5-0.7c-1.2-0.4-2.3-1.2-3.5-2.1l-2.7-5.6
	h-0.8l0.5,8.4C763,386.3,764.5,386.9,766,387.3z"/>
<polygon points="805.8,386.6 801.6,384.6 801.6,356.6 805.8,354.5 805.8,353.7 792.1,353.7 792.1,354.5 796.3,356.6 796.3,384.6 
	792.1,386.6 792.1,387.4 805.8,387.4 "/>
<polygon points="817.8,356.5 825.9,356.5 825.9,384.6 820.7,386.6 820.7,387.4 836.4,387.4 836.4,386.6 831.2,384.6 831.2,356.5 
	839.3,356.5 842.9,364.2 843.7,364.2 843.7,353.7 813.3,353.7 813.3,364.2 814.2,364.2 "/>
<polygon points="863.1,371.7 863.1,384.6 858.5,386.6 858.5,387.4 873,387.4 873,386.6 868.4,384.6 868.4,371.6 879.2,356.2 
	882.5,354.5 882.5,353.7 871.5,353.7 871.5,354.5 875.2,356.4 875.2,356.6 867.1,368.9 858,356.6 858,356.3 861.7,354.5 
	861.7,353.7 848.5,353.7 848.5,354.5 851.8,356.3 "/>
<path d="M534.9,346.9l5.8,2.2v26.1c0,4.4,0.8,7.9,2.4,10.7c1.6,2.7,3.8,4.8,6.5,6.1c2.8,1.3,5.9,1.9,9.4,1.9s6.7-0.6,9.4-1.9
	c2.8-1.3,4.9-3.3,6.5-6.1c1.6-2.7,2.4-6.3,2.4-10.7V349l5.7-2.1v-1.4h-17.1v1.4l7.2,2v27.4c0,3.3-0.6,5.9-1.7,7.9
	c-1.1,2-2.6,3.5-4.5,4.4c-1.9,0.9-4,1.4-6.3,1.4c-2.8,0-5.3-0.5-7.4-1.5c-2.2-1-3.9-2.7-5.1-5c-1.2-2.3-1.8-5.5-1.8-9.5v-25l5.8-2.2
	v-1.4h-17.2V346.9z"/>
<path class="st2" d="M325.9,319l-0.6-0.2l-0.6,0.2c-3.1,1-8.9,4.9-8.9,12.8v21h18.9v-21C334.7,322.3,326.3,319.1,325.9,319z"/>
<path class="st2" d="M239.4,432.4c2.6-0.4,5.9-0.4,9.5,0.7l1.8-8.1L239.4,432.4C239.4,432.4,239.4,432.4,239.4,432.4z"/>
<path class="st2" d="M326,252.7l-0.7-0.2l-0.7,0.2c-1.2,0.3-3.4,1.8-3.4,4.7v23.2h8v-23.2C329.3,254.7,327.2,253.2,326,252.7z"/>
<path class="st2" d="M298.9,328.2l-0.7-0.2l-0.7,0.2c-1.2,0.3-3.3,1.8-3.3,4.6v19.8h7.9v-19.8C302.1,330.1,300,328.6,298.9,328.2z"
	/>
<path class="st2" d="M311.9,254.5c0,0-2.4,1.3-2.4,5.8v23.2l4.7-1.7v-23.2C314.2,255.8,311.9,254.5,311.9,254.5z"/>
<path class="st2" d="M356.3,332.8c0-2.7-2-4.2-3.2-4.6l-0.7-0.2l-0.7,0.2c-1.1,0.3-3.3,1.8-3.3,4.6v19.8h7.8V332.8z"/>
<path class="st2" d="M207.9,232.9l7,11.6c0,0,0,0,0,0c-0.3-2.6-0.1-5.9,1-9.5L207.9,232.9z"/>
<polygon class="st2" points="362.4,269.8 362.4,270 367.9,270 367.9,261.3 367.8,261.3 "/>
<path class="st2" d="M398.9,440.2C398.9,440.2,398.9,440.2,398.9,440.2c0.6-2.6,1.8-5.6,4.1-8.6l-6.9-4.6L398.9,440.2z"/>
<path class="st2" d="M269.7,156.4c-89.7,30.7-137.6,128.3-106.9,218c30.7,89.7,128.3,137.6,218,106.9
	c89.7-30.7,137.6-128.3,106.9-218C457,173.6,359.4,125.7,269.7,156.4z M407.3,223.5l2.9,1.1l23.7-10.5l1.1,1.2l-9.8,18.2l0.2,0.2
	l19.4-7.1l1.1,1.2L432,249.6l0.9,3.3l-0.5,0.4l-7.1-8.2l0.5-0.4l3.4,1.6l9.6-14.9l-0.2-0.2l-19.2,7.4l-1.1-1.3l10-18.1l-0.2-0.2
	l-16,7.5l1.1,3.6l-0.5,0.4l-5.9-6.8L407.3,223.5z M392,351.4v-25h33.1c-0.6,8.7-2.4,17.1-5.1,25H392z M418.3,355.7
	c-4.8,12-11.8,22.8-20.5,32H392v-32H418.3z M392,321.6v-10.1h33.1c0.2,2.4,0.3,4.9,0.3,7.3c0,0.9,0,1.9,0,2.8H392z M377.5,205.6
	l3.7,0.1l10.1-19.7l-2.2-3l0.3-0.6l9.6,4.9l-0.3,0.6l-3.6-0.1l-10.1,19.7l2.2,2.9l-0.3,0.6l-9.6-4.9L377.5,205.6z M332,194l3.5-1.2
	l3-21.9l-3-2.1l0.1-0.6l11.1,1.5l-0.1,0.6l-3.9,1.1l-3.1,22l9.5,1.3l3.8-6.5l0.6,0.1l-1.3,9.1l-20.4-2.8L332,194z M424.6,306.9h-3.9
	c-2.6-21.2-12.1-40.8-27.4-56.1c-17-17-39.3-26.9-63.1-28.1c-0.2-1.2-0.3-2.5-0.4-3.9C378.9,221,418.9,258.7,424.6,306.9z
	 M383.1,296.6v-8.3h4v99.4H375v-99.4h4v8.3H383.1z M386.8,273c-0.5,0.9-1.2,1.6-2.1,2.1c-0.9,0.5-2,0.8-3.1,0.8
	c-1.1,0-2-0.2-2.9-0.6c-0.9-0.4-1.5-1-2-1.7c-0.5-0.7-0.8-1.6-0.8-2.5h2.6c0.1,0.8,0.4,1.4,1,1.9s1.3,0.7,2.2,0.7
	c0.7,0,1.3-0.2,1.8-0.5c0.5-0.3,0.9-0.7,1.2-1.3c0.3-0.5,0.4-1.2,0.4-1.9c0-0.7-0.2-1.4-0.5-1.9c-0.3-0.6-0.7-1-1.3-1.3
	c-0.5-0.3-1.2-0.5-1.9-0.5c-0.5,0-1.1,0.1-1.6,0.3c-0.5,0.2-1,0.4-1.3,0.7l-2.4-0.4l1-8.8h9.6v2.3h-7.4l-0.6,4.9h0.1
	c0.3-0.3,0.8-0.6,1.4-0.8c0.6-0.2,1.2-0.3,1.8-0.3c1.1,0,2,0.3,2.9,0.8c0.8,0.5,1.5,1.2,2,2.1c0.5,0.9,0.7,1.9,0.7,3
	C387.6,271.1,387.3,272.1,386.8,273z M329.8,370.5l-0.9-0.4c-2.2-0.9-4.7-0.9-7,0l-1,0.4c-3.9,1.5-6.5,5.2-6.5,9.3v7.9h0v0.1h-34.3
	v-0.1v0v-24.9h90.4v24.9h0v0.1h-34.3v-0.1v0v-7.9C336.2,375.7,333.6,372,329.8,370.5z M267.1,260.7l-4.2,2.8v-2.6l4.4-2.9h2.6v17.7
	h-2.7v-15.1H267.1z M263.3,288.3h4v8.3h4.1v-8.3h4v99.4h-12.2V288.3z M275.3,271.1c0-0.8,0.1-1.4,0.5-2.1c0.3-0.6,0.7-1.2,1.3-1.6
	c0.5-0.4,1.2-0.7,1.8-0.8v-0.1c-0.9-0.2-1.6-0.7-2.1-1.4c-0.5-0.7-0.8-1.6-0.8-2.5c0-0.9,0.2-1.7,0.7-2.4c0.5-0.7,1.2-1.3,2-1.7
	c0.9-0.4,1.8-0.6,2.9-0.6c1.1,0,2,0.2,2.9,0.6c0.9,0.4,1.5,1,2,1.7c0.5,0.7,0.7,1.5,0.7,2.4c0,1-0.3,1.8-0.8,2.5
	c-0.5,0.7-1.2,1.2-2.1,1.4v0.1c0.7,0.1,1.3,0.4,1.8,0.8c0.5,0.4,1,1,1.3,1.6c0.3,0.6,0.5,1.3,0.5,2.1c0,1-0.3,1.8-0.8,2.6
	c-0.5,0.8-1.3,1.3-2.2,1.8c-1,0.4-2,0.6-3.3,0.6c-1.2,0-2.3-0.2-3.3-0.6c-0.9-0.4-1.7-1-2.2-1.8C275.6,272.9,275.3,272,275.3,271.1z
	 M325.3,285.6c-2.8,0-5.1,2.3-5.1,5.1c0,0.6,0.1,1.3,0.3,1.8l-10.9,7.6h-4.9v-47.7l11.1-4.1h18.8l11.1,4.1v47.7h-4.9l-10.9-7.6
	c0.2-0.6,0.3-1.2,0.3-1.8C330.3,287.9,328.1,285.6,325.3,285.6z M311,304.4l14.3-10l14.3,10h30.7v10.2h-29.3l-15.6-10.9l-15.6,10.9
	h-29.3v-10.2H311z M370.2,318.9v39.5h-89.9v-39.5H311l14.3-10l14.3,10H370.2z M370.5,272.2v3.4h-2.5v-3.4h-8.3v-2.1l7.6-12h3.3V270
	h2.3v2.2H370.5z M324.9,218.7c0.1,0,0.2,0,0.3,0c0.1,0,0.2,0,0.4,0c0.5,6.6,1.8,14.1,4.5,16.6c5.4,4.9,11.7,5.3,13.6,13.9l-9.1-3.3
	h-18.8l-9.1,3.3c1.9-8.6,8.2-8.9,13.6-13.9C323.2,232.8,324.4,225.3,324.9,218.7z M290.9,172.1l0.1,0.6l-3.2,2.4l5.1,21.6l9.3-2.2
	l1.2-7.4l0.6-0.1l2.1,8.9l-20,4.8L286,200l2.8-2.3l-5.1-21.5l-3.6-0.8l-0.2-0.6L290.9,172.1z M320.8,218.8c-0.1,1.4-0.3,2.7-0.4,3.9
	c-23.9,1.2-46.2,11-63.2,28.1c-15.3,15.3-24.8,34.9-27.4,56.1h-3.9C231.6,258.7,271.6,221,320.8,218.8z M230.5,351.4
	c-2.7-7.9-4.5-16.3-5.1-25h33.1v25H230.5z M258.5,355.7v32v0.1h-5.9c-8.7-9.2-15.7-20-20.5-32H258.5z M225.1,321.6
	c0-0.9,0-1.8,0-2.8c0-2.5,0.1-4.9,0.3-7.3h33.1v10.1H225.1z M247.8,189.4l0.4,0.5l-1.9,3.1l12,18.6l3.6-0.4l0.4,0.5l-9.1,5.9
	l-0.4-0.5l1.9-3.2l-12-18.6l-3.7,0.4l-0.4-0.5L247.8,189.4z M204.6,227.9l12.8,3.3c0,0,0,0,0,0c0.5-1.1,1.2-2.2,1.9-3.3l1.9,0.5
	c-0.8,1.1-1.4,2.2-2,3.3v0l11.4,2.9l2.8-1.3l0.5,0.4l-6.4,8.6l-0.5-0.4l1-3.7l-10.4-2.7h0c-2.8,8.4,0.4,14.2,1,15.3l3.1-1.9l0.5,0.4
	l-5.3,7l-0.5-0.4l0.5-2.9l-13.7-23.4L204.6,227.9z M190.2,344.5c-2.3,0.1-4.3-1.8-4.4-4.1c-0.1-2.3,1.8-4.3,4.1-4.4
	c2.3-0.1,4.3,1.8,4.4,4.1C194.4,342.5,192.6,344.5,190.2,344.5z M189.2,299.8c-2-0.5-3.8-1.3-5.3-2.4c-1.5-1.2-2.8-2.5-3.7-4.1
	c-1-1.6-1.6-3.4-1.9-5.2c-0.3-1.9-0.2-3.8,0.3-5.7c0.3-1.4,0.7-2.6,1.1-3.5c0.4-0.9,0.8-1.8,1.3-2.5c0.5-0.7,1-1.4,1.5-2l6.7,1.3
	l-0.1,0.6l-5.4,1.7c-0.9,0.9-1.6,1.6-2,2.3c-0.4,0.7-0.8,1.5-1,2.5c-0.5,1.9-0.4,3.8,0.1,5.5c0.5,1.7,1.5,3.2,2.8,4.5
	c1.4,1.2,3.1,2.1,5.1,2.6c2.5,0.6,4.8,0.7,6.9,0.2c2-0.5,3.7-1.4,5-2.7c1.3-1.3,2.2-2.9,2.7-4.8c0.2-0.8,0.3-1.5,0.4-2.3
	c0.1-0.8,0.1-1.6,0-2.4l-6.7-1.6l-2.4,3.1l-0.6-0.1l2.5-10.4l0.6,0.1l1.1,3.2l6.2,1.5c0.5,0.9,0.9,2,1.1,3.2
	c0.2,1.2,0.3,2.5,0.3,3.7c0,1.3-0.1,2.5-0.4,3.6c-0.4,1.9-1.2,3.6-2.2,5c-1,1.5-2.2,2.6-3.6,3.6c-1.4,0.9-3,1.5-4.7,1.8
	C192.8,300.3,191,300.3,189.2,299.8z M219.9,400.1l-0.4-0.5l2.5-5.1c0-1.3-0.1-2.3-0.3-3.1s-0.6-1.6-1.1-2.4
	c-1.1-1.7-2.4-2.9-4.1-3.7c-1.6-0.8-3.3-1.1-5.2-1c-1.8,0.1-3.6,0.8-5.4,1.9c-2.2,1.4-3.8,3-4.8,4.8c-1,1.8-1.5,3.6-1.5,5.5
	c0,1.9,0.6,3.6,1.7,5.3c0.4,0.7,0.9,1.3,1.4,1.9c0.5,0.6,1.1,1.1,1.7,1.6l5.8-3.8l-0.6-3.9l0.5-0.4l5.8,8.9l-0.5,0.4l-3-1.4
	l-5.3,3.5c-1-0.3-2.1-0.8-3.1-1.5c-1-0.7-2-1.5-2.9-2.3c-0.9-0.9-1.7-1.8-2.3-2.8c-1.1-1.6-1.8-3.3-2.1-5c-0.4-1.7-0.4-3.4-0.1-5.1
	c0.3-1.7,1-3.2,1.9-4.6c1-1.4,2.2-2.7,3.8-3.7c1.7-1.1,3.5-1.9,5.4-2.2c1.9-0.3,3.7-0.3,5.6,0.2c1.8,0.4,3.5,1.2,5.1,2.2
	c1.6,1.1,2.9,2.5,4,4.1c0.8,1.2,1.4,2.3,1.8,3.2c0.4,0.9,0.7,1.8,0.9,2.6c0.2,0.8,0.3,1.7,0.4,2.5L219.9,400.1z M255.7,438.2
	c-1.2-0.7-2.3-1.3-3.4-1.9h0l-2.5,11.5l1.4,2.8l-0.4,0.5l-8.8-6.1l0.4-0.5l3.8,0.9l2.3-10.5h0c-8.5-2.5-14.2,0.9-15.3,1.6l2,3
	l-0.4,0.5l-7.2-5l0.4-0.5l2.9,0.4l22.8-14.7l1.8,1.3l-2.8,13c0,0,0,0,0,0c1.1,0.5,2.2,1.1,3.4,1.8L255.7,438.2z M310.8,392.2
	l-21,20.3c-12.2-4.6-23.3-11.6-32.7-20.3H310.8z M300.7,468l-20.1-4.7l0.1-0.6l3.6-0.8l5.1-21.6l-2.8-2.3l0.1-0.6l10.9,2.6l-0.1,0.6
	l-3.9,0.7l-5.1,21.6l9.3,2.2l4.4-6.1l0.6,0.1L300.7,468z M325.2,419c-10.7,0-21.1-1.7-30.7-4.8l22.4-22h17.6l22.1,21.8
	C346.7,417.2,336.2,419,325.2,419z M363.5,440.2l-3.2,25.7l-1.6,0.3l-10.5-17.8l-0.3,0.1l-3.9,20.3l-1.6,0.3l-11.7-23l-3.3-0.9
	l-0.1-0.6l10.7-1.9l0.1,0.6l-3.1,2.1l7.8,15.9l0.2,0l3.5-20.3l1.7-0.3l10.4,17.9l0.2,0l1.8-17.6l-3.7-0.9l-0.1-0.6l8.8-1.6l0.1,0.6
	L363.5,440.2z M361.3,412.3l-20.7-20.1h52.9C384.1,400.8,373.3,407.7,361.3,412.3z M411.7,442.3l-0.4-0.5l2.2-3.2l-8.9-6
	c-5.4,7-4.3,13.6-4,14.8l3.5-0.8l0.4,0.5l-7.3,4.9l-0.4-0.5l1.4-2.5l-5.4-26.6l1.9-1.3l11.1,7.3c0,0,0,0,0,0
	c0.9-0.8,1.8-1.7,2.9-2.5l1.7,1.1c-1.1,0.8-2.1,1.6-3,2.5c0,0,0,0,0,0l9.8,6.5l3.1-0.3l0.4,0.5L411.7,442.3z M444.9,410.4l-0.5-0.4
	l0.8-3.9l-8.3-5.9l-15.1,0.3l-2.6,1.3l-0.5-0.4l6-8.5l0.5,0.4l-0.5,3.3l0.1,0.1l12.1-0.2l-4.2-10.9l-0.1-0.1l-2.9,1.6l-0.5-0.4
	l5-7.1l0.5,0.4l-0.4,2.9l5,14l8.4,5.9l3.4-2l0.5,0.4L444.9,410.4z M465.6,344.9c-2.4,0.1-4.5-1.8-4.6-4.3c-0.1-2.4,1.8-4.5,4.3-4.6
	c2.4-0.1,4.5,1.8,4.6,4.3C470,342.8,468.1,344.9,465.6,344.9z M473.9,294.3l-2.4-2.8l-8.4,2.2c0.2,0.5,0.4,1.1,0.6,1.6l-1.6,1.2
	c-0.3-0.8-0.5-1.6-0.8-2.4l-11.1,2.9l-0.7,3.6l-0.6,0.2l-2.7-10.3l0.6-0.2l2.4,2.7l10.3-2.7c-0.2-0.4-0.4-0.8-0.7-1.2
	c-4.7-7.2-11-8.6-12.7-8.9l-0.3,0.1l-0.7,3.5l-0.6,0.2l-2.7-10.3l0.6-0.2l2.4,2.8l21.4-5.6l0.7-3.6l0.6-0.2l2.7,10.3l-0.6,0.2
	l-2.4-2.7l-17.5,4.6c1.1,0.4,2.3,1,3.7,1.8c2.3,1.4,4.8,3.6,7,6.9c0.4,0.6,0.7,1.2,1.1,1.8l9.2-2.4l0.7-3.5l0.6-0.2l2.7,10.3
	L473.9,294.3z"/>
<path class="st2" d="M280,265.2c0.5,0.2,1,0.4,1.6,0.4c0.6,0,1.1-0.1,1.6-0.4c0.5-0.2,0.8-0.6,1.1-1c0.3-0.4,0.4-0.9,0.4-1.5
	c0-0.6-0.1-1-0.4-1.5c-0.3-0.4-0.6-0.7-1.1-1c-0.5-0.2-1-0.3-1.6-0.3c-0.6,0-1.1,0.1-1.6,0.3c-0.5,0.2-0.8,0.6-1.1,1
	c-0.3,0.4-0.4,0.9-0.4,1.5c0,0.6,0.1,1.1,0.4,1.5C279.2,264.7,279.6,265,280,265.2z"/>
<path class="st2" d="M341.1,260.3c0-4.5-2.4-5.8-2.4-5.8s-2.3,1.3-2.3,4.1v23.2l4.7,1.7V260.3z"/>
<path class="st2" d="M279.7,273.5c0.5,0.2,1.2,0.4,1.9,0.4c0.7,0,1.4-0.1,1.9-0.4c0.5-0.2,1-0.6,1.2-1c0.3-0.4,0.4-1,0.5-1.6
	c0-0.6-0.2-1.2-0.5-1.6c-0.3-0.5-0.7-0.8-1.3-1.1c-0.5-0.3-1.2-0.4-1.8-0.4c-0.7,0-1.3,0.1-1.9,0.4c-0.5,0.3-1,0.6-1.3,1.1
	c-0.3,0.5-0.5,1-0.5,1.6c0,0.6,0.1,1.1,0.4,1.6C278.7,272.9,279.1,273.2,279.7,273.5z"/>
<polygon class="st1" points="283.7,176.2 288.9,197.7 286,200 286.2,200.7 306.2,195.9 304.1,187 303.5,187.1 302.3,194.5 
	293,196.8 287.9,175.2 291.1,172.7 290.9,172.1 280,174.7 280.2,175.3 "/>
<polygon class="st1" points="242.8,195.4 254.8,214 252.9,217.1 253.3,217.7 262.3,211.8 262,211.3 258.3,211.7 246.3,193.1 
	248.2,190 247.8,189.4 238.8,195.3 239.1,195.8 "/>
<polygon class="st1" points="413.1,230.2 412.1,226.6 428.1,219.2 428.2,219.4 418.3,237.4 419.4,238.7 438.6,231.3 438.8,231.5 
	429.1,246.3 425.7,244.7 425.3,245.2 432.4,253.3 432.9,252.9 432,249.6 445.7,227.8 444.6,226.5 425.2,233.7 425,233.5 
	434.9,215.3 433.8,214.1 410.1,224.5 407.3,223.5 406.8,223.9 412.7,230.6 "/>
<polygon class="st1" points="387,210.5 384.9,207.6 395,187.9 398.7,187.9 398.9,187.4 389.4,182.4 389.1,183 391.3,185.9 
	381.1,205.6 377.5,205.6 377.2,206.1 386.8,211.1 "/>
<polygon class="st1" points="353.6,188.4 353,188.3 349.2,194.8 339.7,193.5 342.7,171.5 346.6,170.4 346.7,169.8 335.6,168.2 
	335.5,168.9 338.5,170.9 335.5,192.8 332,194 331.9,194.6 352.3,197.5 "/>
<path class="st1" d="M465.4,336.1c-2.4,0.1-4.4,2.1-4.3,4.6c0.1,2.4,2.1,4.4,4.6,4.3c2.4-0.1,4.4-2.1,4.3-4.6
	C469.8,337.9,467.8,336,465.4,336.1z"/>
<path class="st1" d="M471.2,283.9l-0.7,3.5l-9.2,2.4c-0.4-0.6-0.7-1.2-1.1-1.8c-2.2-3.3-4.6-5.4-7-6.9c-1.3-0.8-2.6-1.4-3.7-1.8
	l17.5-4.6l2.4,2.7l0.6-0.2l-2.7-10.3l-0.6,0.2l-0.7,3.6l-21.4,5.6l-2.4-2.8l-0.6,0.2l2.7,10.3l0.6-0.2l0.7-3.5l0.3-0.1
	c1.7,0.3,8,1.7,12.7,8.9c0.2,0.4,0.5,0.8,0.7,1.2l-10.3,2.7l-2.4-2.7l-0.6,0.2l2.7,10.3l0.6-0.2l0.7-3.6l11.1-2.9
	c0.3,0.8,0.6,1.5,0.8,2.4l1.6-1.2c-0.2-0.6-0.4-1.1-0.6-1.6l8.4-2.2l2.4,2.8l0.6-0.2l-2.7-10.3L471.2,283.9z"/>
<path class="st1" d="M417.1,436.1l-9.8-6.5c0,0,0,0,0,0c0.9-0.8,1.9-1.7,3-2.5l-1.7-1.1c-1.1,0.8-2,1.7-2.9,2.5c0,0,0,0,0,0
	l-11.1-7.3l-1.9,1.3l5.4,26.6l-1.4,2.5l0.4,0.5l7.3-4.9l-0.4-0.5l-3.5,0.8c-0.3-1.3-1.3-7.8,4-14.8l8.9,6l-2.2,3.2l0.4,0.5l8.9-6
	l-0.4-0.5L417.1,436.1z M398.9,440.2C398.9,440.2,398.9,440.2,398.9,440.2l-2.8-13.2l6.9,4.6C400.7,434.6,399.5,437.6,398.9,440.2z"
	/>
<path class="st1" d="M189.9,336c-2.3,0.1-4.2,2-4.1,4.4c0.1,2.3,2,4.2,4.4,4.1c2.3-0.1,4.2-2,4.1-4.4
	C194.2,337.8,192.3,336,189.9,336z"/>
<path class="st1" d="M202.8,294.7c1-1.5,1.7-3.1,2.2-5c0.3-1.1,0.4-2.3,0.4-3.6c0-1.3-0.1-2.5-0.3-3.7c-0.2-1.2-0.6-2.3-1.1-3.2
	l-6.2-1.5l-1.1-3.2l-0.6-0.1l-2.5,10.4l0.6,0.1l2.4-3.1l6.7,1.6c0.1,0.8,0.1,1.6,0,2.4c-0.1,0.8-0.2,1.5-0.4,2.3
	c-0.5,1.9-1.3,3.5-2.7,4.8c-1.3,1.3-3,2.2-5,2.7c-2,0.5-4.3,0.4-6.9-0.2c-2-0.5-3.7-1.3-5.1-2.6c-1.4-1.2-2.3-2.7-2.8-4.5
	c-0.5-1.7-0.6-3.6-0.1-5.5c0.2-1,0.6-1.8,1-2.5c0.4-0.7,1.1-1.4,2-2.3l5.4-1.7l0.1-0.6l-6.7-1.3c-0.5,0.6-1,1.3-1.5,2
	c-0.5,0.7-0.9,1.5-1.3,2.5c-0.4,0.9-0.7,2.1-1.1,3.5c-0.5,1.9-0.5,3.8-0.3,5.7c0.3,1.9,0.9,3.6,1.9,5.2c1,1.6,2.2,3,3.7,4.1
	c1.5,1.1,3.3,2,5.3,2.4c1.8,0.4,3.6,0.5,5.3,0.2c1.7-0.3,3.3-0.9,4.7-1.8C200.6,297.3,201.8,296.1,202.8,294.7z"/>
<path class="st1" d="M252.7,434.4l2.8-13l-1.8-1.3l-22.8,14.7l-2.9-0.4l-0.4,0.5l7.2,5l0.4-0.5l-2-3c1.1-0.7,6.8-4.1,15.3-1.6h0
	l-2.3,10.5l-3.8-0.9l-0.4,0.5l8.8,6.1l0.4-0.5l-1.4-2.8l2.5-11.5h0c1.1,0.5,2.2,1.1,3.4,1.9l0.4-2
	C255,435.5,253.8,434.9,252.7,434.4C252.7,434.4,252.7,434.4,252.7,434.4z M248.9,433c-3.7-1-6.9-1.1-9.5-0.7c0,0,0,0,0,0l11.3-7.4
	L248.9,433z"/>
<path class="st1" d="M224.2,391.1c-0.4-0.9-1-2-1.8-3.2c-1.1-1.7-2.4-3-4-4.1c-1.6-1.1-3.2-1.8-5.1-2.2c-1.8-0.4-3.7-0.5-5.6-0.2
	c-1.9,0.3-3.7,1-5.4,2.2c-1.6,1-2.8,2.3-3.8,3.7c-1,1.4-1.6,3-1.9,4.6c-0.3,1.7-0.3,3.4,0.1,5.1c0.4,1.7,1.1,3.4,2.1,5
	c0.6,1,1.4,1.9,2.3,2.8c0.9,0.9,1.9,1.7,2.9,2.3c1,0.7,2.1,1.2,3.1,1.5l5.3-3.5l3,1.4l0.5-0.4l-5.8-8.9l-0.5,0.4l0.6,3.9l-5.8,3.8
	c-0.7-0.5-1.2-1.1-1.7-1.6c-0.5-0.6-1-1.2-1.4-1.9c-1.1-1.6-1.6-3.4-1.7-5.3c0-1.9,0.5-3.7,1.5-5.5c1-1.8,2.7-3.4,4.8-4.8
	c1.7-1.1,3.5-1.8,5.4-1.9c1.8-0.1,3.6,0.2,5.2,1c1.6,0.8,3,2,4.1,3.7c0.5,0.8,0.9,1.6,1.1,2.4s0.3,1.8,0.3,3.1l-2.5,5.1l0.4,0.5
	l5.6-3.9c-0.1-0.8-0.2-1.7-0.4-2.5C224.9,392.9,224.6,392,224.2,391.1z"/>
<path class="st1" d="M216.5,256l0.5,0.4l5.3-7l-0.5-0.4l-3.1,1.9c-0.7-1.1-3.8-7-1-15.3h0l10.4,2.7l-1,3.7l0.5,0.4l6.4-8.6l-0.5-0.4
	l-2.8,1.3l-11.4-2.9v0c0.6-1.1,1.2-2.2,2-3.3l-1.9-0.5c-0.7,1.1-1.4,2.2-1.9,3.3c0,0,0,0,0,0l-12.8-3.3l-1.3,1.8l13.7,23.4
	L216.5,256z M214.8,244.5C214.8,244.5,214.8,244.5,214.8,244.5l-7-11.6l8,2.1C214.7,238.6,214.5,241.8,214.8,244.5z"/>
<polygon class="st1" points="297.8,465 288.4,462.8 293.5,441.2 297.4,440.5 297.6,439.9 286.7,437.3 286.5,438 289.4,440.3 
	284.3,461.8 280.8,462.7 280.6,463.3 300.7,468 302.8,459.1 302.1,458.9 "/>
<polygon class="st1" points="356.9,439.2 357,439.9 360.7,440.8 358.8,458.4 358.6,458.4 348.2,440.6 346.6,440.9 343,461.2 
	342.8,461.2 335,445.3 338.1,443.2 338,442.6 327.3,444.5 327.4,445.1 330.7,446.1 342.4,469.1 344,468.8 347.9,448.5 348.1,448.4 
	358.7,466.2 360.3,465.9 363.5,440.2 365.9,438.3 365.8,437.7 "/>
<polygon class="st1" points="447.6,402.7 439.2,396.8 434.2,382.8 434.6,379.9 434.1,379.6 429,386.7 429.6,387.1 432.5,385.5 
	432.6,385.6 436.8,396.4 424.8,396.7 424.6,396.6 425.1,393.3 424.6,393 418.6,401.5 419.1,401.8 421.8,400.6 436.8,400.3 
	445.2,406.2 444.4,410.1 444.9,410.4 451.5,401.1 451,400.7 "/>
<path class="st1" d="M225.8,306.9h3.9c2.6-21.2,12.1-40.8,27.4-56.1c17-17,39.3-26.9,63.2-28.1c0.2-1.2,0.3-2.5,0.4-3.9
	C271.6,221,231.6,258.7,225.8,306.9z"/>
<path class="st1" d="M258.5,311.5h-33.1c-0.2,2.4-0.3,4.9-0.3,7.3c0,0.9,0,1.9,0,2.8h33.4V311.5z"/>
<path class="st1" d="M306.8,249.2l9.1-3.3h18.8l9.1,3.3c-1.9-8.6-8.2-8.9-13.6-13.9c-2.8-2.5-4-10-4.5-16.6c-0.1,0-0.3,0-0.4,0
	c-0.1,0-0.2,0-0.3,0c-0.5,6.6-1.8,14.1-4.6,16.6C315,240.3,308.7,240.6,306.8,249.2z"/>
<path class="st1" d="M393.3,250.8c15.3,15.3,24.8,34.9,27.4,56.1h3.9c-5.7-48.2-45.7-85.9-94.9-88.1c0.1,1.4,0.3,2.7,0.4,3.9
	C354,223.9,376.3,233.8,393.3,250.8z"/>
<path class="st1" d="M325.3,308.9l-14.3,10h-30.7v39.5h89.9v-39.5h-30.7L325.3,308.9z M302.1,352.6h-7.9v-19.8
	c0-2.8,2.2-4.3,3.3-4.6l0.7-0.2l0.7,0.2c1.2,0.5,3.2,1.9,3.2,4.6V352.6z M334.7,352.7h-18.9v-21c0-7.9,5.8-11.8,8.9-12.8l0.6-0.2
	l0.6,0.2c0.3,0.1,8.8,3.3,8.8,12.8V352.7z M348.5,332.8c0-2.8,2.2-4.3,3.3-4.6l0.7-0.2l0.7,0.2c1.2,0.5,3.2,1.9,3.2,4.6v19.8h-7.8
	V332.8z"/>
<path class="st1" d="M340.9,300.2h4.9v-47.7l-11.1-4.1h-18.8l-11.1,4.1v47.7h4.9l10.9-7.6c-0.2-0.6-0.3-1.2-0.3-1.8
	c0-2.8,2.3-5.1,5.1-5.1c2.8,0,5.1,2.3,5.1,5.1c0,0.6-0.1,1.3-0.3,1.8L340.9,300.2z M336.3,258.6c0-2.8,2.3-4.1,2.3-4.1
	s2.4,1.3,2.4,5.8v23.2l-4.7-1.7V258.6z M314.2,281.8l-4.7,1.7v-23.2c0-4.5,2.4-5.8,2.4-5.8s2.3,1.3,2.3,4.1V281.8z M329.3,280.7h-8
	v-23.2c0-2.9,2.2-4.4,3.4-4.7l0.7-0.2l0.7,0.2c1.2,0.5,3.3,2,3.3,4.7V280.7z"/>
<path class="st1" d="M258.5,326.4h-33.1c0.6,8.7,2.4,17.1,5.1,25h28V326.4z"/>
<polygon class="st1" points="280.3,314.7 309.7,314.7 325.3,303.7 340.9,314.7 370.2,314.7 370.2,304.4 339.6,304.4 325.3,294.4 
	311,304.4 280.3,304.4 "/>
<path class="st1" d="M334.5,392.2h-17.6l-22.4,22c9.7,3.1,20,4.8,30.7,4.8c11,0,21.5-1.8,31.4-5L334.5,392.2z"/>
<path class="st1" d="M340.5,392.2l20.7,20.1c12-4.6,22.9-11.5,32.1-20.1H340.5z"/>
<path class="st1" d="M310.8,392.2h-53.7c9.4,8.8,20.5,15.7,32.7,20.3L310.8,392.2z"/>
<path class="st1" d="M425.4,318.9c0-2.5-0.1-4.9-0.3-7.3H392v10.1h33.4C425.3,320.7,425.4,319.8,425.4,318.9z"/>
<path class="st1" d="M258.5,387.8L258.5,387.8l-2.7-0.1L258.5,387.8v-32h-26.4c4.8,12,11.8,22.8,20.5,32H258.5z"/>
<path class="st1" d="M425.1,326.4H392v25h28C422.7,343.5,424.4,335.1,425.1,326.4z"/>
<path class="st1" d="M392,387.8h5.9c8.7-9.2,15.7-20,20.5-32H392V387.8z"/>
<rect x="336.2" y="387.7" class="st1" width="34.3" height="0.1"/>
<rect x="280.1" y="387.7" class="st1" width="34.3" height="0.1"/>
<path class="st1" d="M370.5,387.7L370.5,387.7L370.5,387.7l0-24.9h-90.4v24.9h34.3v0h0v-7.9c0-4.2,2.6-7.9,6.5-9.3l1-0.4
	c2.2-0.8,4.7-0.8,7,0l0.9,0.4c3.9,1.5,6.4,5.2,6.4,9.3v7.9H370.5z"/>
<rect x="336.2" y="387.7" class="st1" width="34.3" height="0"/>
<rect x="280.1" y="387.7" class="st1" width="34.3" height="0"/>
<polygon class="st1" points="275.5,288.3 271.5,288.3 271.5,296.6 267.4,296.6 267.4,288.3 263.3,288.3 263.3,387.7 275.5,387.7 "/>
<polygon class="st1" points="375,288.3 375,387.7 387.1,387.7 387.1,288.3 383.1,288.3 383.1,296.6 379,296.6 379,288.3 "/>
<path class="st1" d="M386.9,267c-0.5-0.9-1.1-1.6-2-2.1c-0.8-0.5-1.8-0.8-2.9-0.8c-0.7,0-1.3,0.1-1.8,0.3c-0.6,0.2-1,0.5-1.4,0.8
	h-0.1l0.6-4.9h7.4v-2.3h-9.6l-1,8.8l2.4,0.4c0.3-0.3,0.8-0.5,1.3-0.7c0.5-0.2,1.1-0.3,1.6-0.3c0.7,0,1.3,0.2,1.9,0.5
	c0.5,0.3,1,0.8,1.3,1.3c0.3,0.6,0.5,1.2,0.5,1.9c0,0.7-0.1,1.3-0.4,1.9c-0.3,0.5-0.7,1-1.2,1.3c-0.5,0.3-1.1,0.5-1.8,0.5
	c-0.8,0-1.6-0.2-2.2-0.7s-0.9-1.1-1-1.9h-2.6c0,0.9,0.3,1.8,0.8,2.5c0.5,0.7,1.2,1.3,2,1.7c0.9,0.4,1.8,0.6,2.9,0.6
	c1.2,0,2.2-0.3,3.1-0.8c0.9-0.5,1.6-1.2,2.1-2.1c0.5-0.9,0.8-1.9,0.8-3C387.6,268.9,387.4,267.8,386.9,267z"/>
<path class="st1" d="M372.8,270h-2.3v-11.9h-3.3l-7.6,12v2.1h8.3v3.4h2.5v-3.4h2.3V270z M367.9,270h-5.6v-0.1l5.4-8.6h0.1V270z"/>
<path class="st1" d="M278.3,275.4c0.9,0.4,2,0.6,3.3,0.6c1.2,0,2.3-0.2,3.3-0.6c0.9-0.4,1.7-1,2.2-1.8c0.5-0.8,0.8-1.6,0.8-2.6
	c0-0.8-0.2-1.4-0.5-2.1c-0.3-0.6-0.7-1.2-1.3-1.6c-0.5-0.4-1.1-0.7-1.8-0.8v-0.1c0.9-0.2,1.6-0.7,2.1-1.4c0.5-0.7,0.8-1.6,0.8-2.5
	c0-0.9-0.3-1.7-0.7-2.4c-0.5-0.7-1.2-1.3-2-1.7c-0.9-0.4-1.8-0.6-2.9-0.6c-1.1,0-2.1,0.2-2.9,0.6c-0.9,0.4-1.5,1-2,1.7
	c-0.5,0.7-0.7,1.5-0.7,2.4c0,1,0.3,1.8,0.8,2.5c0.5,0.7,1.2,1.2,2.1,1.4v0.1c-0.7,0.1-1.3,0.4-1.8,0.8c-0.5,0.4-1,1-1.3,1.6
	c-0.3,0.6-0.5,1.3-0.5,2.1c0,1,0.3,1.8,0.8,2.6C276.6,274.4,277.4,275,278.3,275.4z M278.6,262.8c0-0.6,0.1-1,0.4-1.5
	c0.3-0.4,0.6-0.7,1.1-1c0.5-0.2,1-0.3,1.6-0.3c0.6,0,1.1,0.1,1.6,0.3c0.5,0.2,0.8,0.6,1.1,1c0.3,0.4,0.4,0.9,0.4,1.5
	c0,0.6-0.1,1.1-0.4,1.5c-0.3,0.4-0.6,0.8-1.1,1c-0.5,0.2-1,0.4-1.6,0.4c-0.6,0-1.1-0.1-1.6-0.4c-0.5-0.2-0.8-0.6-1.1-1
	C278.7,263.8,278.6,263.3,278.6,262.8z M278.5,269.2c0.3-0.5,0.7-0.8,1.3-1.1c0.5-0.3,1.2-0.4,1.9-0.4c0.7,0,1.3,0.1,1.8,0.4
	c0.5,0.3,1,0.6,1.3,1.1c0.3,0.5,0.5,1,0.5,1.6c0,0.6-0.2,1.1-0.5,1.6c-0.3,0.4-0.7,0.8-1.2,1c-0.5,0.2-1.2,0.4-1.9,0.4
	c-0.7,0-1.4-0.1-1.9-0.4c-0.5-0.2-1-0.6-1.3-1c-0.3-0.4-0.4-1-0.4-1.6C278,270.3,278.2,269.7,278.5,269.2z"/>
<polygon class="st1" points="269.9,275.8 269.9,258 267.3,258 262.8,260.9 262.8,263.5 267.1,260.7 267.2,260.7 267.2,275.8 "/>
</svg>
